<mxfile host="app.diagrams.net" modified="2023-06-04T12:18:06.240Z" agent="5.0 (Macintosh; Intel Mac OS X 10_15_7) AppleWebKit/537.36 (KHTML, like Gecko) Chrome/112.0.0.0 Safari/537.36" etag="D_wvmlaYpqwgN00gpVBc" version="21.0.6" type="github">
  <diagram name="第 1 页" id="jzfTj6OATZpXna60yeoR">
    <mxGraphModel dx="1647" dy="911" grid="1" gridSize="10" guides="1" tooltips="1" connect="1" arrows="1" fold="1" page="1" pageScale="1" pageWidth="827" pageHeight="1169" math="0" shadow="0">
      <root>
        <mxCell id="0" />
        <mxCell id="1" parent="0" />
        <mxCell id="_Ju1leTZsxsnUoh_aL-t-1" value="" style="endArrow=none;dashed=1;html=1;rounded=0;" edge="1" parent="1">
          <mxGeometry width="50" height="50" relative="1" as="geometry">
            <mxPoint x="80" y="160" as="sourcePoint" />
            <mxPoint x="820" y="160" as="targetPoint" />
          </mxGeometry>
        </mxCell>
        <mxCell id="_Ju1leTZsxsnUoh_aL-t-2" value="服务接入层" style="text;html=1;strokeColor=none;fillColor=none;align=center;verticalAlign=middle;whiteSpace=wrap;rounded=0;" vertex="1" parent="1">
          <mxGeometry x="100" y="110" width="90" height="30" as="geometry" />
        </mxCell>
        <mxCell id="_Ju1leTZsxsnUoh_aL-t-3" value="服务网关" style="rounded=1;whiteSpace=wrap;html=1;" vertex="1" parent="1">
          <mxGeometry x="210" y="90" width="110" height="50" as="geometry" />
        </mxCell>
        <mxCell id="_Ju1leTZsxsnUoh_aL-t-4" value="服务流控" style="rounded=1;whiteSpace=wrap;html=1;" vertex="1" parent="1">
          <mxGeometry x="370" y="90" width="110" height="50" as="geometry" />
        </mxCell>
        <mxCell id="_Ju1leTZsxsnUoh_aL-t-5" value="服务降级" style="rounded=1;whiteSpace=wrap;html=1;" vertex="1" parent="1">
          <mxGeometry x="530" y="90" width="110" height="50" as="geometry" />
        </mxCell>
        <mxCell id="_Ju1leTZsxsnUoh_aL-t-6" value="服务安全" style="rounded=1;whiteSpace=wrap;html=1;" vertex="1" parent="1">
          <mxGeometry x="690" y="90" width="110" height="50" as="geometry" />
        </mxCell>
        <mxCell id="_Ju1leTZsxsnUoh_aL-t-12" value="" style="endArrow=none;dashed=1;html=1;rounded=0;" edge="1" parent="1">
          <mxGeometry width="50" height="50" relative="1" as="geometry">
            <mxPoint x="80" y="260" as="sourcePoint" />
            <mxPoint x="820" y="260" as="targetPoint" />
          </mxGeometry>
        </mxCell>
        <mxCell id="_Ju1leTZsxsnUoh_aL-t-13" value="服务运行层" style="text;html=1;strokeColor=none;fillColor=none;align=center;verticalAlign=middle;whiteSpace=wrap;rounded=0;" vertex="1" parent="1">
          <mxGeometry x="100" y="210" width="90" height="30" as="geometry" />
        </mxCell>
        <mxCell id="_Ju1leTZsxsnUoh_aL-t-14" value="服务注册" style="rounded=1;whiteSpace=wrap;html=1;" vertex="1" parent="1">
          <mxGeometry x="210" y="190" width="110" height="50" as="geometry" />
        </mxCell>
        <mxCell id="_Ju1leTZsxsnUoh_aL-t-15" value="服务发现" style="rounded=1;whiteSpace=wrap;html=1;" vertex="1" parent="1">
          <mxGeometry x="370" y="190" width="110" height="50" as="geometry" />
        </mxCell>
        <mxCell id="_Ju1leTZsxsnUoh_aL-t-16" value="服务路由" style="rounded=1;whiteSpace=wrap;html=1;" vertex="1" parent="1">
          <mxGeometry x="530" y="190" width="110" height="50" as="geometry" />
        </mxCell>
        <mxCell id="_Ju1leTZsxsnUoh_aL-t-17" value="服务容错" style="rounded=1;whiteSpace=wrap;html=1;" vertex="1" parent="1">
          <mxGeometry x="690" y="190" width="110" height="50" as="geometry" />
        </mxCell>
        <mxCell id="_Ju1leTZsxsnUoh_aL-t-18" value="" style="endArrow=none;dashed=1;html=1;rounded=0;" edge="1" parent="1">
          <mxGeometry width="50" height="50" relative="1" as="geometry">
            <mxPoint x="80" y="440" as="sourcePoint" />
            <mxPoint x="820" y="440" as="targetPoint" />
          </mxGeometry>
        </mxCell>
        <mxCell id="_Ju1leTZsxsnUoh_aL-t-19" value="技术支撑层" style="text;html=1;strokeColor=none;fillColor=none;align=center;verticalAlign=middle;whiteSpace=wrap;rounded=0;" vertex="1" parent="1">
          <mxGeometry x="100" y="340" width="90" height="30" as="geometry" />
        </mxCell>
        <mxCell id="_Ju1leTZsxsnUoh_aL-t-20" value="接口框架" style="rounded=1;whiteSpace=wrap;html=1;" vertex="1" parent="1">
          <mxGeometry x="210" y="290" width="110" height="50" as="geometry" />
        </mxCell>
        <mxCell id="_Ju1leTZsxsnUoh_aL-t-21" value="分布式事务" style="rounded=1;whiteSpace=wrap;html=1;" vertex="1" parent="1">
          <mxGeometry x="370" y="290" width="110" height="50" as="geometry" />
        </mxCell>
        <mxCell id="_Ju1leTZsxsnUoh_aL-t-22" value="自动化测试" style="rounded=1;whiteSpace=wrap;html=1;" vertex="1" parent="1">
          <mxGeometry x="530" y="290" width="110" height="50" as="geometry" />
        </mxCell>
        <mxCell id="_Ju1leTZsxsnUoh_aL-t-23" value="容器编排" style="rounded=1;whiteSpace=wrap;html=1;" vertex="1" parent="1">
          <mxGeometry x="690" y="290" width="110" height="50" as="geometry" />
        </mxCell>
        <mxCell id="_Ju1leTZsxsnUoh_aL-t-24" value="自动化部署" style="rounded=1;whiteSpace=wrap;html=1;" vertex="1" parent="1">
          <mxGeometry x="210" y="370" width="110" height="50" as="geometry" />
        </mxCell>
        <mxCell id="_Ju1leTZsxsnUoh_aL-t-25" value="灰度发布" style="rounded=1;whiteSpace=wrap;html=1;" vertex="1" parent="1">
          <mxGeometry x="370" y="370" width="110" height="50" as="geometry" />
        </mxCell>
        <mxCell id="_Ju1leTZsxsnUoh_aL-t-26" value="服务监控" style="rounded=1;whiteSpace=wrap;html=1;" vertex="1" parent="1">
          <mxGeometry x="530" y="370" width="110" height="50" as="geometry" />
        </mxCell>
        <mxCell id="_Ju1leTZsxsnUoh_aL-t-27" value="服务跟踪" style="rounded=1;whiteSpace=wrap;html=1;" vertex="1" parent="1">
          <mxGeometry x="690" y="370" width="110" height="50" as="geometry" />
        </mxCell>
        <mxCell id="_Ju1leTZsxsnUoh_aL-t-28" value="基础设施层" style="text;html=1;strokeColor=none;fillColor=none;align=center;verticalAlign=middle;whiteSpace=wrap;rounded=0;" vertex="1" parent="1">
          <mxGeometry x="100" y="490" width="90" height="30" as="geometry" />
        </mxCell>
        <mxCell id="_Ju1leTZsxsnUoh_aL-t-29" value="配置中心" style="rounded=1;whiteSpace=wrap;html=1;" vertex="1" parent="1">
          <mxGeometry x="210" y="470" width="110" height="50" as="geometry" />
        </mxCell>
        <mxCell id="_Ju1leTZsxsnUoh_aL-t-30" value="日志中心" style="rounded=1;whiteSpace=wrap;html=1;" vertex="1" parent="1">
          <mxGeometry x="370" y="470" width="110" height="50" as="geometry" />
        </mxCell>
        <mxCell id="_Ju1leTZsxsnUoh_aL-t-31" value="分布式锁" style="rounded=1;whiteSpace=wrap;html=1;" vertex="1" parent="1">
          <mxGeometry x="530" y="470" width="110" height="50" as="geometry" />
        </mxCell>
        <mxCell id="_Ju1leTZsxsnUoh_aL-t-32" value="消息队列" style="rounded=1;whiteSpace=wrap;html=1;" vertex="1" parent="1">
          <mxGeometry x="690" y="470" width="110" height="50" as="geometry" />
        </mxCell>
      </root>
    </mxGraphModel>
  </diagram>
</mxfile>
